<?xml version="1.0" encoding="utf-8"?>
<!DOCTYPE svg PUBLIC "-//W3C//DTD SVG 1.1//EN" "http://www.w3.org/Graphics/SVG/1.1/DTD/svg11.dtd">
<svg version="1.1" xmlns="http://www.w3.org/2000/svg" xmlns:xlink="http://www.w3.org/1999/xlink" viewBox="0 0 120 100" xml:space="preserve">
<g fill="#fff">
<path d="M72.393,53.565c-3.985-4.454-9.525-6.957-16.634-7.497c6.322-1.724,10.915-4.244,13.819-7.613 c2.891-3.324,4.325-7.836,4.325-13.515c0-4.495-0.983-8.472-2.886-11.907c-1.952-3.414-4.758-6.148-8.444-8.194 c-3.226-1.774-7.059-3.025-11.527-3.763C46.555,0.362,38.696,0,27.419,0H0v100h28.25c11.348,0,19.534-0.398,24.538-1.158 c5-0.786,9.195-2.109,12.59-3.922c4.2-2.217,7.403-5.371,9.642-9.423c2.252-4.065,3.369-8.753,3.369-14.114 C78.389,63.967,76.391,58.007,72.393,53.565z M25.319,22.17h5.853c6.764,0,11.309,0.764,13.654,2.283 c2.314,1.528,3.494,4.165,3.494,7.922c0,3.614-1.255,6.16-3.74,7.653c-2.516,1.465-7.104,2.207-13.819,2.207h-5.442V22.17z  M48.535,79.515c-2.663,1.635-7.252,2.439-13.69,2.439h-9.526V60.106h9.937c6.612,0,11.183,0.831,13.614,2.493 c2.47,1.662,3.686,4.597,3.686,8.811C52.556,75.181,51.224,77.889,48.535,79.515z"/>
<path d="M107.336,74.667c-6.999,0-12.669,5.666-12.669,12.665c0,6.999,5.67,12.669,12.669,12.669 c6.99,0,12.664-5.67,12.664-12.669C120,80.333,114.326,74.667,107.336,74.667z"/>
<rect x="96.334" y="0" class="st0" width="22" height="66.667"/>
</g>
</svg>
